<svg xmlns="http://www.w3.org/2000/svg" viewBox="0 0 680 620" font-family="Segoe UI, Arial, sans-serif">
  <rect width="680" height="620" fill="#0f1115"/>
  <text x="340" y="42" fill="#e8e8e8" font-size="22" text-anchor="middle" font-weight="600">Ulanzi D100H — default (offline) layout</text>
  <text x="340" y="68" fill="#9aa0a6" font-size="13" text-anchor="middle">fixed when Ulanzi Studio is closed — not customizable</text>

  <!-- device body -->
  <rect x="160" y="100" width="360" height="430" rx="44" fill="#23272e" stroke="#3a3f47" stroke-width="2"/>

  <!-- top 3 buttons: media transport (Consumer page, HID-readable) -->
  <g>
    <rect x="184" y="126" width="92" height="52" rx="10" fill="#16271c" stroke="#4caf72" stroke-width="2"/>
    <text x="230" y="157" fill="#dfe7e1" font-size="13" text-anchor="middle">Prev</text>
    <rect x="294" y="126" width="92" height="52" rx="10" fill="#16271c" stroke="#4caf72" stroke-width="2"/>
    <text x="340" y="150" fill="#dfe7e1" font-size="12" text-anchor="middle">Play /</text>
    <text x="340" y="166" fill="#dfe7e1" font-size="12" text-anchor="middle">Pause</text>
    <rect x="404" y="126" width="92" height="52" rx="10" fill="#16271c" stroke="#4caf72" stroke-width="2"/>
    <text x="450" y="157" fill="#dfe7e1" font-size="13" text-anchor="middle">Next</text>
  </g>

  <!-- 4 side buttons: editing shortcuts (Keyboard page, NOT readable) — positions per official manual -->
  <g>
    <rect x="176" y="258" width="82" height="52" rx="10" fill="#2a1f1a" stroke="#d98c3a" stroke-width="2"/>
    <text x="217" y="283" fill="#efe2d6" font-size="13" text-anchor="middle">Paste</text>
    <text x="217" y="298" fill="#b9a892" font-size="10" text-anchor="middle">Ctrl+V</text>
    <rect x="176" y="336" width="82" height="52" rx="10" fill="#2a1f1a" stroke="#d98c3a" stroke-width="2"/>
    <text x="217" y="361" fill="#efe2d6" font-size="13" text-anchor="middle">Copy</text>
    <text x="217" y="376" fill="#b9a892" font-size="10" text-anchor="middle">Ctrl+C</text>
    <rect x="422" y="258" width="82" height="52" rx="10" fill="#2a1f1a" stroke="#d98c3a" stroke-width="2"/>
    <text x="463" y="283" fill="#efe2d6" font-size="13" text-anchor="middle">Redo</text>
    <text x="463" y="298" fill="#b9a892" font-size="10" text-anchor="middle">Ctrl+Y</text>
    <rect x="422" y="336" width="82" height="52" rx="10" fill="#2a1f1a" stroke="#d98c3a" stroke-width="2"/>
    <text x="463" y="361" fill="#efe2d6" font-size="13" text-anchor="middle">Undo</text>
    <text x="463" y="376" fill="#b9a892" font-size="10" text-anchor="middle">Ctrl+Z</text>
  </g>

  <!-- dial -->
  <circle cx="340" cy="330" r="74" fill="#1a1d22" stroke="#5aa9e6" stroke-width="2"/>
  <circle cx="340" cy="306" r="11" fill="#5aa9e6"/>
  <text x="340" y="338" fill="#cfe3f5" font-size="13" text-anchor="middle" font-weight="600">DIAL</text>
  <text x="340" y="357" fill="#9aa0a6" font-size="11" text-anchor="middle">rotate = volume ±</text>
  <text x="340" y="372" fill="#9aa0a6" font-size="11" text-anchor="middle">press = mute</text>

  <!-- legend -->
  <g font-size="13">
    <rect x="120" y="560" width="16" height="16" rx="3" fill="#16271c" stroke="#4caf72" stroke-width="2"/>
    <text x="146" y="573" fill="#cfd3d8">Media keys — Consumer HID page, readable via node-hid</text>
    <rect x="120" y="586" width="16" height="16" rx="3" fill="#2a1f1a" stroke="#d98c3a" stroke-width="2"/>
    <text x="146" y="599" fill="#cfd3d8">Ctrl shortcuts — Keyboard HID page, NOT readable on Windows</text>
  </g>
</svg>
